<?xml version="1.0" encoding="UTF-8"?>
<svg version="1.1" viewBox="0 0 2048 1274" width="993" height="618" xmlns="http://www.w3.org/2000/svg">
<path transform="translate(0)" d="m0 0h2048v1274h-2048z" fill="#FEFFFE"/>
<path transform="translate(474,511)" d="m0 0 16 1 10 3 11 7 12 11 84 84 6 10 4 10 1 5v20l-6 16-9 12-87 87-10 7-11 5-8 2h-17l-14-4-10-6-13-12-80-80-8-11-5-12-2-12 1-14 5-13 6-10 94-94 14-8 9-3z" fill="#FEFFFE"/>
<path transform="translate(474,511)" d="m0 0 16 1 10 3 11 7 12 11 84 84 6 10 4 10 1 5v20l-6 16-9 12-87 87-10 7-11 5-8 2h-17l-14-4-10-6-13-12-80-80-8-11-5-12-2-12 1-14 5-13 6-10 94-94 14-8 9-3zm2 11-14 3-11 7-10 9-80 80-7 10-4 11-1 13 3 12 6 11 17 17 13 1 51-1 9-15 10-17h41l14 24 6 12-13 23-7 11-42 1-2-5-13-23-4-5h-54v3l67 67 10 6 10 3h16l13-5 9-7 89-89 6-10 3-10v-16l-3-10-6-9-15-15-3-1h-61l-4 5-15 26-1 1h-42l-8-15-11-19 7-14 10-17 3-5h41l16 28 3 4h57l-6-7-65-65-12-6-11-2z" fill="#E92529"/>
<path transform="translate(758,599)" d="m0 0h10l14 3 12 6 10 9 7 11 4 12 1 5v15l-2 10-5 12-4 6-5 6-9 6-12 5-6 1h-14l-14-5-3-1v51l-1 3h-29l-1-1-1-20v-131l1-1h31l1 5 8-5z" fill="#E92529"/>
<path transform="translate(1688,552)" d="m0 0h31v153h-30l-2-6-8 5-6 2h-16l-15-5-8-5-7-6-7-11-4-9-2-9v-16l4-16 7-12 7-7 9-6 11-4 7-1h10l13 4 5 3z" fill="#E92529"/>
<path transform="translate(1075,599)" d="m0 0h11l14 4 8 6 2 2 4-1 10-6 12-4 8-1h10l10 2 9 4 7 6 5 11 2 10v73h-30l-1-1-1-66-3-9-4-4-2-1h-13l-6 3-4 5-2 6-1 66-1 1h-30l-2-70-4-8-4-3-8-1-9 2-5 4-4 9-1 67h-31v-104h31v8l14-8z" fill="#E92529"/>
<path transform="translate(946,599)" d="m0 0h10l11 2 12 5 9 6 7 7 6 10 4 10 1 6v17l-4 13-7 11-6 7-8 6-12 5-11 2h-16l-14-4-10-6-9-8-6-9-4-9-2-8v-19l4-13 6-10 9-9 10-6 9-4z" fill="#E92529"/>
<path transform="translate(1251,599)" d="m0 0h10l14 3 14 7 8 7 7 10 4 8 2 7 1 8v9l-4 16-5 9-9 10-8 6-12 5-9 2h-17l-14-4-12-7-9-9-7-12-3-9-1-8v-10l4-16 7-11 7-8 13-8 12-4z" fill="#E92529"/>
<path transform="translate(1324,552)" d="m0 0h30l1 3v42l1 13 6-7 12-4h16l10 2 10 5 7 8 4 11 1 7v73h-30l-1-6-1-62-3-9-5-4h-14l-6 3-4 6-2 6-1 15v50l-1 1h-30z" fill="#E92529"/>
<path transform="translate(1477,599)" d="m0 0h17l14 4 10 6 6 7 4 11v78h-30l-1-1v-6l-10 6-7 2h-17l-13-4-6-4-6-7-3-7-1-10 2-12 6-10 8-7 10-5 9-2 12-1h16l-4-8-5-3h-14l-8 4-4 1-20-12 2-4 8-7 12-6z" fill="#E92529"/>
<path transform="translate(406,624)" d="m0 0h32l6 9 8 14h53l13-23h33l15 25-1 6-13 22-2 2h-28l-4-1-11-19-2-3h-53l-13 22-2 1h-25l-7-2-14-24 1-5 13-23z" fill="#E92529"/>
<path transform="translate(1596,599)" d="m0 0h11l8 3-1 11-3 12-5-1h-15l-6 4-4 5-2 7-1 65h-30l-1-1v-103h31v8h2l2-4 10-5z" fill="#E92529"/>
<path transform="translate(878,599)" d="m0 0h11l9 3-2 13-2 9-3 1-2-1h-15l-6 3-4 5-2 6-1 66-1 1h-30v-104h31l1 7 7-6z" fill="#E92529"/>
<path transform="translate(756,623)" d="m0 0h10l8 4 6 7 4 10 1 4v9l-2 8-5 10-6 5-9 3-8-1-6-3-7-8-4-10-1-10 3-13 4-6 5-5z" fill="#FEFFFE"/>
<path transform="translate(1663,623)" d="m0 0h11l6 3 5 5 5 8 2 7v15l-4 10-7 8-6 3-9 1-8-3-5-4-5-9-3-10v-9l3-10 6-9z" fill="#FEFFFE"/>
<path transform="translate(465,580)" d="m0 0h27l7 10 8 14-2 6-11 19-1 1h-29l-8-13-6-11 2-5 11-19z" fill="#FEFFFE"/>
<path transform="translate(490,673)" d="m0 0 4 2 13 22-1 4-9 16-4 6h-29l-8-13-6-10 1-5 12-20 1-1z" fill="#FEFFFE"/>
<path transform="translate(946,625)" d="m0 0h11l8 4 7 8 3 9v13l-4 11-8 8-11 3-10-2-8-7-5-8-1-4v-14l3-8 4-6 6-5z" fill="#FEFFFE"/>
<path transform="translate(1251,625)" d="m0 0h11l8 5 7 8 3 12-1 11-4 9-6 7-7 3h-13l-8-5-6-8-2-5-1-6v-8l4-11 5-7z" fill="#FEFFFE"/>
<path transform="translate(1476,661)" d="m0 0h21v12l-4 6-6 3-5 1h-7l-7-3-2-2v-9l3-5z" fill="#FEFFFE"/>
</svg>
