<svg width="33" height="32" viewBox="0 0 33 32" fill="none" xmlns="http://www.w3.org/2000/svg">
<g clip-path="url(#clip0_6_861)">
<path d="M32.6792 16C32.6792 7.1635 25.5157 0 16.6792 0C7.84267 0 0.679169 7.1635 0.679169 16C0.679169 23.986 6.53017 30.6054 14.1792 31.8056V20.625H10.1167V16H14.1792V12.475C14.1792 8.465 16.5679 6.25 20.2227 6.25C21.9732 6.25 23.8042 6.5625 23.8042 6.5625V10.5H21.7867C19.799 10.5 19.1792 11.7334 19.1792 12.9987V16H23.6167L22.9073 20.625H19.1792V31.8056C26.8282 30.6054 32.6792 23.9861 32.6792 16Z" fill="#1877F2"/>
<path d="M22.9073 20.625L23.6167 16H19.1792V12.9987C19.1792 11.7332 19.799 10.5 21.7867 10.5H23.8042V6.5625C23.8042 6.5625 21.9732 6.25 20.2225 6.25C16.5679 6.25 14.1792 8.465 14.1792 12.475V16H10.1167V20.625H14.1792V31.8056C15.0062 31.9352 15.8421 32.0002 16.6792 32C17.5163 32.0002 18.3521 31.9353 19.1792 31.8056V20.625H22.9073Z" fill="white"/>
</g>
<defs>
<clipPath id="clip0_6_861">
<rect width="32" height="32" fill="white" transform="translate(0.679169)"/>
</clipPath>
</defs>
</svg>
