<svg width="33" height="32" viewBox="0 0 33 32" fill="none" xmlns="http://www.w3.org/2000/svg">
<path d="M30.0261 13.3887H28.9521V13.3333H16.9521V18.6667H24.4874C23.3881 21.7713 20.4341 24 16.9521 24C12.5341 24 8.95211 20.418 8.95211 16C8.95211 11.582 12.5341 7.99999 16.9521 7.99999C18.9914 7.99999 20.8468 8.76932 22.2594 10.026L26.0308 6.25466C23.6494 4.03532 20.4641 2.66666 16.9521 2.66666C9.58877 2.66666 3.61877 8.63666 3.61877 16C3.61877 23.3633 9.58877 29.3333 16.9521 29.3333C24.3154 29.3333 30.2854 23.3633 30.2854 16C30.2854 15.106 30.1934 14.2333 30.0261 13.3887Z" fill="#FFC107"/>
<path d="M5.15611 9.79399L9.53678 13.0067C10.7221 10.072 13.5928 7.99999 16.9521 7.99999C18.9914 7.99999 20.8468 8.76932 22.2594 10.026L26.0308 6.25466C23.6494 4.03532 20.4641 2.66666 16.9521 2.66666C11.8308 2.66666 7.38945 5.55799 5.15611 9.79399Z" fill="#FF3D00"/>
<path d="M16.9521 29.3333C20.3961 29.3333 23.5254 28.0153 25.8914 25.872L21.7648 22.38C20.3811 23.4323 18.6904 24.0014 16.9521 24C13.4841 24 10.5394 21.7887 9.43011 18.7027L5.08211 22.0527C7.28877 26.3707 11.7701 29.3333 16.9521 29.3333Z" fill="#4CAF50"/>
<path d="M30.0261 13.3887H28.9521V13.3333H16.9521V18.6667H24.4874C23.9616 20.1443 23.0143 21.4355 21.7628 22.3807L21.7648 22.3793L25.8914 25.8713C25.5994 26.1367 30.2854 22.6667 30.2854 16C30.2854 15.106 30.1934 14.2333 30.0261 13.3887Z" fill="#1976D2"/>
</svg>
